<svg xmlns="http://www.w3.org/2000/svg" stroke="black">
  <style>
    .sprite { display: none; }
    .sprite:target { display: inline; }
    .text { font-size: 40px; }
  </style>

  <rect id="tool-point" class="sprite" x="20" y="20" width="4" height="4" />
  <polyline id="tool-brush" class="sprite" points="8,8 22,8 22,22 36,22 36,36" fill="none" />
  <g id="tool-boxBrush" class="sprite">
    <polyline points="8,8 22,8 22,22 36,22 36,36" fill="none" />
    <polyline points="20,8 20,22 22,22" fill="none" />
    <polyline points="34,22 34,36" fill="none" />
  </g>
  <!-- fill -->
  <rect id="tool-rect" class="sprite" x="7" y="7" width="30" height="30" fill="none" />
  <rect id="tool-fillRect" class="sprite" x="7" y="7" width="30" height="30" fill="black" />
  <g id="tool-boxRect" class="sprite">
    <rect x="7" y="7" width="30" height="30" fill="none" />
    <line x1="9" y1="7" x2="9" y2="37" />
    <line x1="35" y1="7" x2="35" y2="37" />
  </g>
  <ellipse id="tool-ellipse" class="sprite" cx="22" cy="22" rx="15" ry="8" fill="none" />
  <ellipse id="tool-fillEllipse" class="sprite" cx="22" cy="22" rx="15" ry="8" />
  <line id="tool-line" class="sprite" x1="15" y1="5" x2="29" y2="39" />
  <text id="tool-text" class="sprite text" x="10" y="35" fill="black">T</text>
  <!-- swap -->
  <!-- eyedrop -->

  <g id="sprite-guide" class="sprite">
    <line x1="22" y1="0" x2="22" y2="44" stroke="blue" />
    <line x1="0" y1="22" x2="44" y2="22" stroke="blue" />
    <rect x="0" y="0" width="44" height="44" fill="none" stroke="red" />
  </g>
</svg>
