<svg xmlns="http://www.w3.org/2000/svg" stroke="#000"><style>.sprite{display:none}.sprite:target{display:inline}</style><symbol id="pencil-sprite"><rect width="6" height="4" x="19" y="2" rx="1"/><path d="M19 4h6v2h-6ZM19 7v29M22 7v29M25 7v29"/><path fill="none" d="M19 35v1l3 5 3-5v-1"/></symbol><symbol id="rect-sprite"><path d="M7 10h30v24H7Z"/></symbol><symbol id="ellipse-sprite"><ellipse cx="22" cy="22" rx="15" ry="8"/></symbol><path id="point" d="M20 20h4v4h-4Z" class="sprite"/><use id="brush" class="sprite" href="#pencil-sprite" transform="rotate(45 22 22)"/><g id="boxBrush" class="sprite"><use href="#pencil-sprite" transform="rotate(45 22 37.556)scale(.5)"/><path fill="none" d="M5 37h21V18M5 39h21v-2"/></g><g id="fill" class="sprite"><path stroke-width="5" d="M38.97 5.03 26.244 17.756"/><path fill="none" stroke-width="1" d="M26.243 17.757 17.05 26.95l9.9 9.9-3.536 3.535L22 38.97"/><path stroke-width="6" d="M5.03 22 22 38.97"/></g><use id="rect" fill="none" class="sprite" href="#rect-sprite"/><use id="fillRect" class="sprite" href="#rect-sprite"/><g id="boxRect" class="sprite"><use fill="none" href="#rect-sprite"/><path d="M9 10v24M35 10v24"/></g><use id="ellipse" fill="none" class="sprite" href="#ellipse-sprite"/><use id="fillEllipse" class="sprite" href="#ellipse-sprite"/><path id="line" d="m15 5 14 34" class="sprite"/><text id="text" x="10" y="35" fill="#000" class=" sprite" style="font-size:40px">T</text><g id="swap" class=" sprite" style="font-size:13px"><path fill="none" d="M4 4h14v14H4Z"/><text x="6" y="15">A</text><path fill="none" d="M26 26h14v14H26Z"/><text x="29" y="37">B</text><path d="m18 18 8 8M26 26v-3l-3 3Z"/></g><g id="eyedrop" class="sprite" transform="rotate(45 22 22)"><circle cx="22" cy="4" r="2"/><path d="M20 4h4v4h-4Z"/><path stroke-width="2" d="M18 8h8"/><path d="M20 9v29M24 9v29M21 38v2M23 38v2M22 40v1"/></g><g id="sprite-guide" class="sprite"><path stroke="#00f" d="M22 0v44M0 22h44"/><path fill="none" stroke="red" d="M0 0h44v44H0Z"/></g></svg>